<svg width="20" height="19" viewBox="0 0 20 19" fill="none" xmlns="http://www.w3.org/2000/svg">
  <path fill-rule="evenodd" clip-rule="evenodd" d="M9.96941 0C4.46482 0 0 4.35987 0 9.73504C0 14.0352 2.87462 17.6783 6.78899 18.9923C7.27829 19.052 7.46178 18.7534 7.46178 18.5145C7.46178 18.2756 7.46178 17.6783 7.46178 16.8422C4.70949 17.4394 4.09787 15.5283 4.09787 15.5283C3.66973 14.3935 2.99694 14.0949 2.99694 14.0949C2.07951 13.4976 3.0581 13.4976 3.0581 13.4976C4.0367 13.5574 4.58715 14.513 4.58715 14.513C5.50458 16.0061 6.91132 15.588 7.46178 15.3491C7.52294 14.6921 7.82875 14.2741 8.0734 14.0352C5.87156 13.7963 3.54739 12.9601 3.54739 9.19751C3.54739 8.12247 3.91437 7.28634 4.58715 6.56965C4.46483 6.33075 4.15903 5.31545 4.70949 4.00152C4.70949 4.00152 5.56575 3.76261 7.46178 5.01682C8.25688 4.77792 9.11314 4.7182 9.96941 4.7182C10.8257 4.7182 11.6819 4.83765 12.4771 5.01682C14.3731 3.76261 15.2293 4.00152 15.2293 4.00152C15.7798 5.31545 15.4128 6.33075 15.3517 6.56965C15.9633 7.22662 16.3914 8.12247 16.3914 9.19751C16.3914 12.9601 14.0673 13.7365 11.8654 13.9754C12.2324 14.2741 12.5382 14.8713 12.5382 15.7672C12.5382 17.0811 12.5382 18.0964 12.5382 18.4547C12.5382 18.6936 12.7217 18.9923 13.211 18.9325C17.1865 17.6186 20 13.9754 20 9.67531C19.9388 4.35987 15.474 0 9.96941 0Z" fill="#C4C4C4"/>
</svg>
