<svg width="19" height="15" viewBox="0 0 19 15" fill="none" xmlns="http://www.w3.org/2000/svg">
  <path d="M19 1.77579C18.301 2.07727 17.5497 2.2803 16.7612 2.37182C17.5663 1.90346 18.1846 1.1613 18.4751 0.276866C17.7222 0.710624 16.8878 1.02594 15.9996 1.19591C15.2895 0.459906 14.2753 0 13.1543 0C10.6376 0 8.78829 2.28107 9.35671 4.64905C6.118 4.49139 3.24583 2.984 1.32288 0.692935C0.301625 2.39489 0.79325 4.62136 2.52858 5.74882C1.8905 5.72882 1.28883 5.55886 0.763958 5.27507C0.721208 7.02933 2.01558 8.67053 3.89025 9.03584C3.34163 9.18042 2.74075 9.21426 2.12958 9.10044C2.62517 10.6047 4.06442 11.6991 5.77125 11.7299C4.1325 12.9781 2.06783 13.5357 0 13.2988C1.72504 14.3732 3.77467 15 5.9755 15C13.2129 15 17.3019 9.06199 17.0549 3.73616C17.8165 3.20165 18.4775 2.53486 19 1.77579Z" fill="#C4C4C4"/>
</svg>
